<?xml version="1.0" encoding="UTF-8"?>
<svg width="1200pt" height="1200pt" version="1.1" viewBox="0 0 1200 1200" xmlns="http://www.w3.org/2000/svg">
 <g fill="#f1d492">
  <path d="m595.92 242.25c103.9 0 188.01-13.922 188.01-31.016v-77.227c-29.484 12.574-84.645 22.246-188.01 22.246s-158.53-9.6758-188.01-22.246v77.227c-0.003906 17.094 84.273 31.016 188.01 31.016zm134.56-71.355c9.4883 0 17.188 7.6797 17.188 17.188 0 9.582-7.6797 17.281-17.188 17.281-9.582 0-17.281-7.6797-17.281-17.281 0.003906-9.4883 7.7031-17.188 17.281-17.188z"/>
  <path d="m595.92 358.56c103.9 0 188.01-13.922 188.01-31.016v-77.227c-29.484 12.574-84.645 22.246-188.01 22.246s-158.53-9.6758-188.01-22.246v77.227c-0.003906 17.078 84.273 31.016 188.01 31.016zm134.56-71.445c9.4883 0 17.188 7.7734 17.188 17.281 0 9.582-7.6797 17.281-17.188 17.281-9.582 0-17.281-7.6797-17.281-17.281 0.003906-9.5078 7.7031-17.281 17.281-17.281z"/>
  <path d="m580.36 477.71 31.125-0.019532c96.59-1.3125 172.45-14.66 172.45-30.703v-77.41c-29.484 12.574-84.645 22.246-188.01 22.246-103.37 0-158.53-9.6758-188.01-22.246v77.41c0 16.062 76.008 29.484 172.45 30.723zm150.13-71.316c9.4883 0 17.188 7.8633 17.188 17.281 0 9.582-7.6797 17.445-17.188 17.445-9.582 0-17.281-7.8633-17.281-17.445 0.003906-9.418 7.7031-17.281 17.281-17.281z"/>
  <path d="m782.62 91.07c0 16.977-83.59 30.738-186.7 30.738-103.11 0-186.7-13.762-186.7-30.738 0-16.977 83.59-30.738 186.7-30.738 103.11 0 186.7 13.762 186.7 30.738"/>
  <path d="m1002.8 661.31c-103.37 0-158.53-9.6758-188.01-22.246v77.242c0 17.094 84.277 31.016 188.01 31.016 103.9 0 188.01-13.922 188.01-31.016v-77.227c-29.484 12.555-84.645 22.23-188.01 22.23zm134.57 49.105c-9.582 0-17.281-7.6797-17.281-17.281 0-9.4883 7.6797-17.188 17.281-17.188 9.4883 0 17.188 7.6797 17.188 17.188 0 9.6016-7.6992 17.281-17.188 17.281z"/>
  <path d="m814.75 755.37v77.227c0 17.094 84.277 31.016 188.01 31.016 103.9 0 188.01-13.922 188.01-31.016v-77.227c-29.484 12.574-84.645 22.246-188.01 22.246-103.37 0-158.53-9.6914-188.01-22.246zm322.58 36.797c9.4883 0 17.188 7.7734 17.188 17.281 0 9.582-7.6797 17.281-17.188 17.281-9.582 0-17.281-7.6797-17.281-17.281 0-9.4922 7.6992-17.281 17.281-17.281z"/>
  <path d="m814.75 874.65v77.41c0 16.062 76.008 29.484 172.45 30.719l31.125-0.019531c96.59-1.3125 172.45-14.66 172.45-30.703v-77.41c-29.484 12.574-84.645 22.246-188.01 22.246-103.37 0.003907-158.53-9.668-188.01-22.242zm322.58 36.793c9.4883 0 17.188 7.8633 17.188 17.281 0 9.582-7.6797 17.445-17.188 17.445-9.582 0-17.281-7.8633-17.281-17.445 0-9.3984 7.6992-17.281 17.281-17.281z"/>
  <path d="m1189.5 596.12c0 16.973-83.586 30.738-186.7 30.738-103.11 0-186.7-13.766-186.7-30.738 0-16.977 83.59-30.742 186.7-30.742 103.11 0 186.7 13.766 186.7 30.742"/>
  <path d="m197.24 747.32c103.9 0 188.01-13.922 188.01-31.016v-77.227c-29.484 12.574-84.645 22.246-188.01 22.246-103.37 0-158.53-9.6758-188.01-22.246v77.227c0 17.074 84.277 31.016 188.01 31.016zm134.57-71.355c9.4883 0 17.188 7.6797 17.188 17.188 0 9.582-7.6797 17.281-17.188 17.281-9.582 0-17.281-7.6797-17.281-17.281 0-9.5078 7.6992-17.188 17.281-17.188z"/>
  <path d="m197.24 863.61c103.9 0 188.01-13.922 188.01-31.016v-77.227c-29.484 12.574-84.645 22.246-188.01 22.246-103.37 0-158.53-9.6758-188.01-22.246v77.227c0 17.094 84.277 31.016 188.01 31.016zm134.57-71.445c9.4883 0 17.188 7.7734 17.188 17.281 0 9.582-7.6797 17.281-17.188 17.281-9.582 0-17.281-7.6797-17.281-17.281 0-9.4922 7.6992-17.281 17.281-17.281z"/>
  <path d="m385.25 952.06v-77.41c-29.484 12.574-84.645 22.246-188.01 22.246-103.37 0-158.53-9.6758-188.01-22.246v77.41c0 16.062 76.008 29.484 172.45 30.719l31.125-0.019531c96.594-1.3086 172.45-14.656 172.45-30.699zm-53.445-5.8906c-9.582 0-17.281-7.8633-17.281-17.445 0-9.3984 7.6797-17.281 17.281-17.281 9.4883 0 17.188 7.8633 17.188 17.281 0 9.582-7.6992 17.445-17.188 17.445z"/>
  <path d="m383.95 596.12c0 16.973-83.59 30.738-186.7 30.738-103.11 0-186.7-13.766-186.7-30.738 0-16.977 83.586-30.742 186.7-30.742 103.11 0 186.7 13.766 186.7 30.742"/>
  <path d="m229.11 528.77c29.723-71.262 79.383-132 141.97-175.57 1.6602-1.293 3.3242-2.3984 4.9844-3.6914-4.9844-8.3086-4.9844-16.246-4.9844-21.969v-39.875c-92.676 53.723-164.68 139.02-201.23 241.11 8.6758-0.37109 17.906-0.37109 27.324-0.37109 11.258-0.019531 21.781 0.16797 31.938 0.36719z"/>
  <path d="m970.89 528.77c10.152-0.18359 20.676-0.37109 31.938-0.37109 9.4141 0 18.645 0 27.324 0.37109-37.66-105.05-112.8-192.37-209.36-245.91v44.676c0 4.8008 0 11.262-3.1367 18.094 1.1094 0.55469 2.2148 1.293 3.1367 2.0312 66.465 43.734 119.08 106.88 150.09 181.11z"/>
  <path d="m600 1084.3c-89.539 0-172.06-29.355-238.89-79.016-18.277 4.6172-41.906 8.4922-72.738 11.078 81.602 76.617 191.26 123.32 311.63 123.32 120.37 0 230.03-46.707 311.63-123.32-30.832-2.3984-54.645-6.2773-72.922-10.891-66.645 49.492-149.35 78.828-238.71 78.828z"/>
 </g>
</svg>
