<?xml version="1.0" encoding="UTF-8"?>
<svg width="1200pt" height="1200pt" version="1.1" viewBox="0 0 1200 1200" xmlns="http://www.w3.org/2000/svg">
 <g fill="#f1d492">
  <path d="m60 162.9v113.69c0 6.4922 5.2656 11.758 11.762 11.758h1056.5c6.4961 0 11.762-5.2656 11.762-11.758v-113.69c0-3.1172-1.2383-6.1094-3.4453-8.3125-2.2031-2.207-5.1953-3.4453-8.3164-3.4453h-1056.5c-3.1211 0-6.1133 1.2383-8.3164 3.4453-2.207 2.2031-3.4453 5.1953-3.4453 8.3125zm809.33 80.629c-7.9766 2.043-16.449 0.47266-23.156-4.3008-6.7109-4.7734-10.977-12.258-11.664-20.465-0.68359-8.2031 2.2773-16.293 8.1016-22.113 5.8242-5.8203 13.918-8.7812 22.121-8.0898 8.207 0.69141 15.688 4.9609 20.457 11.676 4.7695 6.7109 6.3359 15.184 4.2891 23.156-1.25 4.8516-3.7812 9.2812-7.3242 12.82-3.543 3.543-7.9727 6.0703-12.824 7.3164zm99.602 0c-7.9766 2.043-16.449 0.47266-23.16-4.3008-6.707-4.7734-10.973-12.258-11.66-20.465-0.6875-8.2031 2.2773-16.293 8.1016-22.113 5.8242-5.8203 13.914-8.7812 22.121-8.0898 8.2031 0.69141 15.688 4.9609 20.457 11.676 4.7656 6.7109 6.3359 15.184 4.2852 23.156-1.2461 4.8477-3.7656 9.2695-7.3008 12.812-3.5352 3.5391-7.9531 6.0703-12.797 7.3242zm99.602 0h-0.003906c-7.9727 2.0469-16.445 0.47266-23.156-4.2969-6.7109-4.7734-10.977-12.258-11.664-20.461s2.2734-16.293 8.0938-22.117c5.8203-5.8203 13.914-8.7812 22.117-8.0938s15.688 4.957 20.461 11.664c4.7695 6.7109 6.3438 15.184 4.2969 23.156-1.2383 4.8438-3.7539 9.2656-7.2812 12.809-3.5234 3.543-7.9336 6.0781-12.77 7.3398z"/>
  <path d="m60 317.75v719.36c0 6.4922 5.2656 11.758 11.762 11.758h1056.5c6.4961 0 11.762-5.2656 11.762-11.758v-719.36c0-3.1172-1.2383-6.1094-3.4453-8.3125-2.2031-2.207-5.1953-3.4453-8.3164-3.4453h-1056.5c-3.1211 0-6.1133 1.2383-8.3164 3.4453-2.207 2.2031-3.4453 5.1953-3.4453 8.3125zm408.73 369.86-0.12109 0.14453-257.21 257.2c-9.0234 9.3281-21.176 14.992-34.125 15.902-12.945 0.91016-25.773-2.9961-36.012-10.973-11.16-9.1562-17.93-22.602-18.637-37.016-0.70703-14.418 4.707-28.461 14.914-38.668l222.88-222.88-221.22-221.28c-9.3281-9.0234-14.992-21.176-15.902-34.125-0.91406-12.945 2.9961-25.773 10.973-36.016 9.1562-11.156 22.602-17.926 37.016-18.633 14.418-0.71094 28.461 4.707 38.668 14.914l262.22 262.29c9.5742 9.1992 14.695 22.094 14.035 35.355-0.66016 13.262-7.0352 25.586-17.48 33.789zm456.47 244.8c-0.042969 1.9102-0.5625 3.7812-1.5117 5.4375-2.6406 11.18-8.9766 21.145-17.98 28.277-9.0039 7.1328-20.152 11.02-31.641 11.035h-333.3c-11.488-0.015626-22.637-3.9023-31.641-11.035-9.0039-7.1328-15.34-17.098-17.98-28.277-0.96094-1.6523-1.4961-3.5234-1.5469-5.4375v-12.754c0.039063-1.9141 0.55859-3.7891 1.5117-5.4492 2.6406-11.18 8.9766-21.141 17.98-28.277 9.0039-7.1328 20.152-11.02 31.637-11.035h333.38c11.488 0.015626 22.633 3.9023 31.637 11.035 9.0039 7.1367 15.34 17.098 17.98 28.277 0.94922 1.6602 1.4688 3.5273 1.5117 5.4375z"/>
 </g>
</svg>
