<?xml version="1.0" encoding="UTF-8"?>
<svg width="1200pt" height="1200pt" version="1.1" viewBox="0 0 1200 1200" xmlns="http://www.w3.org/2000/svg">
 <g fill="#f1d492">
  <path d="m395.29 486.65c-79.789 0-123.24-21.215-124.59-129.32-0.61328-48.254-34.523-76.066-100.8-82.668-4.9453-0.49219-8.5547-4.8945-8.0625-9.8398 0.49219-4.9453 4.9219-8.6055 9.8398-8.0625 75.828 7.5352 116.29 42.238 117.02 100.34 1.3086 104.63 42.191 112.02 109.22 111.54h0.046874c4.9453 0 8.9766 3.9961 9 8.9531 0.023438 4.9688-3.9844 9.0234-8.9531 9.0469-0.90625 0.011719-1.8203 0.011719-2.7305 0.011719z"/>
  <path d="m397.98 486.64c-2.207 0-4.4141-0.80469-6.1445-2.4258l-43.105-40.309c-3.6367-3.3945-3.8164-9.0977-0.43359-12.719 3.4062-3.6484 9.0977-3.8164 12.719-0.43359l43.105 40.309c3.6367 3.3945 3.8164 9.0977 0.43359 12.719-1.7734 1.9102-4.1758 2.8594-6.5742 2.8594z"/>
  <path d="m354.88 526.96c-2.3984 0-4.8008-0.96094-6.5742-2.8555-3.3945-3.6367-3.2031-9.3242 0.43359-12.719l43.105-40.297c3.625-3.3828 9.3242-3.2148 12.719 0.43359 3.3945 3.6367 3.2031 9.3242-0.43359 12.719l-43.105 40.297c-1.7266 1.6172-3.9336 2.4219-6.1445 2.4219z"/>
  <path d="m170.79 943.29c-4.5586 0-8.4844-3.4688-8.9414-8.1133-0.50391-4.9453 3.1094-9.3477 8.0508-9.8398 66.277-6.625 100.19-34.441 100.8-82.691 1.3438-108.07 44.809-129.31 124.55-129.31 0.92578 0 1.8477 0.011719 2.7734 0.011719 4.9688 0.035156 8.9766 4.0781 8.9531 9.0586-0.023438 4.9453-4.0547 8.9414-9 8.9414-1.7773-0.25391-3.1094-0.011719-4.6328-0.011719-64.379 0-103.37 9.3125-104.65 111.55-0.50391 40.5-21.227 90.793-117 100.36-0.28906 0.039063-0.59766 0.050781-0.89844 0.050781z"/>
  <path d="m354.88 771.66c-2.3984 0-4.8008-0.96094-6.5742-2.8438-3.3945-3.6367-3.2031-9.3242 0.43359-12.73l43.105-40.309c3.625-3.3711 9.3242-3.1914 12.719 0.42188 3.3945 3.6367 3.2031 9.3242-0.43359 12.73l-43.105 40.309c-1.7266 1.6055-3.9336 2.4219-6.1445 2.4219z"/>
  <path d="m397.98 731.32c-2.207 0-4.4141-0.80469-6.1445-2.4258l-43.105-40.285c-3.6367-3.3945-3.8164-9.0977-0.43359-12.719 3.3945-3.6484 9.0977-3.8047 12.719-0.43359l43.105 40.285c3.6367 3.3945 3.8164 9.0977 0.43359 12.719-1.7734 1.8984-4.1758 2.8594-6.5742 2.8594z"/>
  <path d="m397.98 607.08h-227.18c-4.9688 0-9-4.0195-9-9s4.0312-9 9-9h227.18c4.9688 0 9 4.0312 9 9s-4.0312 9-9 9z"/>
  <path d="m397.99 607.09c-2.8203 0-5.5938-1.3203-7.3438-3.8047l-28.586-40.309c-2.8789-4.0547-1.9219-9.6719 2.1367-12.539 4.043-2.8672 9.6719-1.9219 12.539 2.1367l28.586 40.309c2.8789 4.0547 1.9219 9.6719-2.1367 12.539-1.582 1.125-3.4062 1.668-5.1953 1.668z"/>
  <path d="m369.39 647.41c-1.8008 0-3.6133-0.53906-5.1953-1.6562-4.0547-2.8789-5.0156-8.4961-2.1367-12.551l28.586-40.332c2.8672-4.0547 8.4961-5.0156 12.539-2.1367 4.0547 2.8672 5.0156 8.4961 2.1367 12.539l-28.586 40.332c-1.75 2.4883-4.5234 3.8047-7.3438 3.8047z"/>
  <path d="m66.277 340.85c-1.5469 0-3.1094-0.40625-4.5-1.2109l-57.277-33.07c-2.7852-1.5977-4.5-4.5742-4.5-7.7891v-66.145c0-3.2148 1.7148-6.1914 4.5-7.7891l57.277-33.07c2.7852-1.6094 6.2148-1.6094 9 0l57.277 33.07c2.7852 1.6094 4.5 4.5703 4.5 7.7891v66.145c0 3.2148-1.7148 6.1914-4.5 7.7891l-57.277 33.07c-1.3945 0.80469-2.9414 1.2109-4.5 1.2109zm-48.277-47.27 48.277 27.875 48.277-27.875-0.003907-55.75-48.277-27.875-48.273 27.875z"/>
  <path d="m66.277 274.7c-1.5469 0-3.1094-0.40625-4.5-1.2109l-57.277-33.07c-4.3086-2.4844-5.7734-7.9922-3.2891-12.289 2.4844-4.3086 7.9922-5.7734 12.289-3.2891l52.777 30.469 52.777-30.469c4.3047-2.4844 9.8125-1.0195 12.297 3.2891 2.4844 4.3086 1.0078 9.8047-3.2891 12.289l-57.277 33.07c-1.4023 0.80469-2.9492 1.2109-4.5078 1.2109z"/>
  <path d="m66.277 340.85c-4.9688 0-9-4.0312-9-9v-66.145c0-4.9688 4.0312-9 9-9s9 4.0312 9 9v66.145c0 4.9688-4.0352 9-9 9z"/>
  <path d="m66.277 673.22c-1.5469 0-3.1094-0.39453-4.5-1.2109l-57.277-33.07c-2.7852-1.6094-4.5-4.5859-4.5-7.7891v-66.121c0-3.2148 1.7148-6.1914 4.5-7.7891l57.277-33.086c2.7734-1.6094 6.2266-1.6094 9 0l57.277 33.086c2.7852 1.6094 4.5 4.5703 4.5 7.7891v66.121c0 3.2148-1.7148 6.1914-4.5 7.7891l-57.277 33.07c-1.3945 0.80469-2.9414 1.2109-4.5 1.2109zm-48.277-47.266 48.277 27.863 48.277-27.863v-55.738l-48.277-27.887-48.277 27.895z"/>
  <path d="m66.277 607.08c-1.5469 0-3.1094-0.40625-4.5-1.2109l-57.277-33.047c-4.2969-2.4844-5.7734-7.9922-3.2891-12.289 2.4844-4.3086 7.9805-5.7969 12.289-3.2891l52.777 30.457 52.777-30.457c4.2852-2.4961 9.8047-1.0195 12.289 3.2891s1.0078 9.8164-3.2891 12.289l-57.277 33.047c-1.3945 0.80469-2.9414 1.2109-4.5 1.2109z"/>
  <path d="m66.277 673.22c-4.9688 0-9-4.0312-9-9v-66.145c0-4.9688 4.0312-9 9-9s9 4.0312 9 9v66.145c0 4.9688-4.0352 9-9 9z"/>
  <path d="m66.277 1009.4c-1.5469 0-3.1094-0.39453-4.5-1.2109l-57.277-33.07c-2.7852-1.6094-4.5-4.5859-4.5-7.7891v-66.145c0-3.2148 1.7148-6.1914 4.5-7.7891l57.277-33.07c2.7852-1.6211 6.2148-1.6211 9 0l57.277 33.07c2.7852 1.6094 4.5 4.5859 4.5 7.7891v66.145c0 3.2148-1.7148 6.1914-4.5 7.7891l-57.277 33.07c-1.3945 0.8125-2.9414 1.2109-4.5 1.2109zm-48.277-47.258 48.277 27.863 48.277-27.863v-55.754l-48.277-27.863-48.277 27.852z"/>
  <path d="m66.277 943.29c-1.5469 0-3.1094-0.39453-4.5-1.2109l-57.277-33.07c-4.3086-2.4844-5.7734-7.9922-3.2891-12.289 2.4844-4.2969 7.9922-5.7734 12.289-3.2891l52.777 30.469 52.777-30.469c4.2969-2.4844 9.8047-1.0078 12.289 3.2891s1.0078 9.8047-3.2891 12.289l-57.277 33.07c-1.3945 0.8125-2.9414 1.2109-4.5 1.2109z"/>
  <path d="m66.277 1009.4c-4.9688 0-9-4.0312-9-9v-66.145c0-4.9688 4.0312-9 9-9s9 4.0312 9 9v66.145c0 4.9648-4.0352 9-9 9z"/>
  <path d="m774.56 837.3h-296.64c-24.793 0-44.965-20.172-44.965-44.953l0.003907-406.73c0-24.781 20.172-44.953 44.965-44.953h296.64c24.781 0 44.953 20.172 44.953 44.953v406.74c-0.003906 24.781-20.176 44.941-44.957 44.941zm-296.64-478.63c-14.867 0-26.965 12.098-26.965 26.953v406.74c0 14.855 12.098 26.953 26.965 26.953h296.64c14.855 0 26.953-12.098 26.953-26.953l-0.003906-406.74c0-14.855-12.098-26.953-26.953-26.953z"/>
  <path d="m841.59 598c-4.9688 0-9-4.0312-9-9s4.0312-9 9-9l113.59-0.011719c4.9688 0 9 4.0312 9 9s-4.0312 9-9 9z"/>
  <path d="m955.19 597.98c-2.8203 0-5.6055-1.3203-7.3555-3.793l-28.586-40.309c-2.8672-4.0547-1.9062-9.6719 2.1484-12.539 4.0781-2.8789 9.6836-1.9219 12.551 2.1367l28.586 40.309c2.8672 4.0547 1.9062 9.6719-2.1484 12.539-1.5938 1.1172-3.4062 1.6562-5.1953 1.6562z"/>
  <path d="m926.58 638.29c-1.7891 0-3.6133-0.53906-5.1953-1.6562-4.0547-2.8789-5.0156-8.4961-2.1484-12.551l28.586-40.32c2.8672-4.0547 8.4727-5.0273 12.551-2.1367 4.0547 2.8789 5.0156 8.4961 2.1484 12.539l-28.586 40.32c-1.75 2.4844-4.5352 3.8047-7.3555 3.8047z"/>
  <path d="m635.99 418.21h-137.1c-4.9688 0-9-4.0312-9-9s4.0312-9 9-9h137.1c4.9688 0 9 4.0312 9 9s-4.0312 9-9 9z"/>
  <path d="m729.61 478.14h-230.73c-4.9688 0-9-4.0312-9-9s4.0312-9 9-9h230.72c4.9688 0 9 4.0312 9 9 0.003906 4.9688-4.0312 9-8.9961 9z"/>
  <path d="m597.54 538.05h-98.652c-4.9688 0-9-4.0312-9-9s4.0312-9 9-9h98.652c4.9688 0 9 4.0312 9 9s-4.0312 9-9 9z"/>
  <path d="m667.75 598h-168.87c-4.9688 0-9-4.0312-9-9s4.0312-9 9-9h168.86c4.9688 0 9 4.0312 9 9 0.003906 4.9688-4.0195 9-8.9961 9z"/>
  <path d="m567.45 657.91h-68.555c-4.9688 0-9-4.0312-9-9s4.0312-9 9-9h68.555c4.9688 0 9 4.0312 9 9s-4.0352 9-9 9z"/>
  <path d="m716.24 717.84h-217.36c-4.9688 0-9-4.0312-9-9s4.0312-9 9-9h217.34c4.9688 0 9 4.0312 9 9s-4.0195 9-8.9883 9z"/>
  <path d="m614.26 777.77h-115.36c-4.9688 0-9-4.0312-9-9s4.0312-9 9-9h115.36c4.9688 0 9 4.0312 9 9 0 4.9648-4.0352 9-9 9z"/>
  <path d="m1095.9 564.21c-51.73 0-104.1-14.484-104.1-42.168s52.367-42.168 104.1-42.168c51.73 0 104.09 14.484 104.09 42.168s-52.355 42.168-104.09 42.168zm0-66.324c-55.715 0-86.102 15.961-86.102 24.168 0 8.207 30.383 24.168 86.102 24.168 53.398 0 86.09-15.648 86.09-24.168 0-8.5195-32.688-24.168-86.09-24.168z"/>
  <path d="m1095.9 630.56c-51.73 0-104.1-14.484-104.1-42.18 0-4.9688 4.0312-9 9-9s9 4.0312 9 9c0 8.5195 32.688 24.18 86.102 24.18 53.398 0 86.09-15.66 86.09-24.18 0-4.9688 4.0312-9 9-9s9 4.0312 9 9c0 27.695-52.355 42.18-104.09 42.18z"/>
  <path d="m1095.9 698.09c-51.73 0-104.1-14.484-104.1-42.168 0-4.9688 4.0312-9 9-9s9 4.0312 9 9c0 8.5195 32.688 24.168 86.102 24.168 53.398 0 86.09-15.648 86.09-24.168 0-4.9688 4.0312-9 9-9s9 4.0312 9 9c0 27.684-52.355 42.168-104.09 42.168z"/>
  <path d="m1000.8 664.92c-4.9688 0-9-4.0312-9-9v-133.88c0-4.9688 4.0312-9 9-9s9 4.0312 9 9v133.88c0 4.9648-4.0312 9-9 9z"/>
  <path d="m1191 664.92c-4.9688 0-9-4.0312-9-9v-133.88c0-4.9688 4.0312-9 9-9s9 4.0312 9 9v133.88c0 4.9648-4.0312 9-9 9z"/>
 </g>
</svg>
